<svg width="291" height="240" viewBox="0 0 291 240" fill="none" xmlns="http://www.w3.org/2000/svg">
<g filter="url(#filter0_d_76_367)">
<path fill-rule="evenodd" clip-rule="evenodd" d="M150 235C214.802 235 267.334 183.513 267.334 120C267.334 56.4873 214.802 5 150 5C85.1989 5 32.667 56.4873 32.667 120C32.667 183.513 85.1989 235 150 235ZM150 221.028C206.929 221.028 253.078 175.796 253.078 120C253.078 64.2037 206.929 18.972 150 18.972C93.072 18.972 46.9224 64.2037 46.9224 120C46.9224 175.796 93.072 221.028 150 221.028Z" fill="white"/>
<ellipse cx="150.001" cy="120" rx="94.3268" ry="92.451" fill="white"/>
</g>
<path d="M87.992 152.078C86.2515 152.482 84.6394 152.466 83.156 152.03C81.7265 151.628 80.7969 150.537 80.3674 148.756C80.0951 147.627 80.0741 146.303 80.3045 144.782C81.2973 145.469 82.1619 145.911 82.8984 146.107C83.6785 146.293 84.4601 146.295 85.2433 146.113C87.419 145.609 88.7357 144.02 89.1933 141.347C89.6945 138.663 89.5889 135.845 88.8765 132.892C87.5461 127.378 84.814 125.099 80.6802 126.058C79.5054 126.33 78.5203 126.627 77.725 126.949L78.3913 153.134L68.9924 155.313L67.875 111.832L77.2207 108.291L77.6415 123.461L78.0331 123.37C79.6866 122.987 81.1057 122.108 82.2902 120.733C83.4642 119.314 84.2926 117.701 84.7752 115.893C85.2474 114.041 85.2844 112.29 84.8864 110.64C84.4045 108.643 83.2832 107.138 81.5225 106.124C79.8053 105.101 77.489 104.927 74.5736 105.603C71.9193 106.218 69.4769 107.426 67.2465 109.227C65.0056 110.984 63.3682 113.243 62.3344 116.005C61.3441 118.756 61.2575 121.825 62.0746 125.212C62.4622 126.818 62.8869 127.912 63.3486 128.493C63.7999 129.03 64.036 129.342 64.0569 129.429C61.7507 129.963 59.9002 129.911 58.5054 129.271C57.1 128.588 56.1407 127.183 55.6274 125.055C54.915 122.103 55.3489 119.045 56.929 115.882C58.5092 112.719 60.933 109.911 64.2005 107.457C67.4576 104.96 71.1094 103.242 75.1562 102.304C78.2021 101.598 80.8846 101.481 83.2037 101.952C85.5228 102.423 87.3714 103.325 88.7493 104.656C90.1708 105.977 91.1067 107.571 91.5572 109.438C92.0391 111.435 91.9396 113.499 91.2587 115.628C90.5778 117.757 89.3345 119.65 87.5287 121.307C90.2547 121.179 92.4844 121.946 94.2177 123.608C95.9405 125.226 97.1215 127.359 97.7605 130.008C98.3576 132.483 98.5285 135.286 98.2731 138.417C98.0612 141.538 97.1241 144.414 95.4617 147.046C93.8324 149.625 91.3425 151.302 87.992 152.078ZM110.835 146.028C108.746 146.512 106.892 146.254 105.272 145.254C103.696 144.244 102.594 142.436 101.965 139.831C101.703 138.745 101.537 137.294 101.466 135.476L100.86 113.54L110.259 111.362L110.903 134.596C110.929 135.277 111.01 135.9 111.147 136.465C111.576 138.245 112.444 138.984 113.749 138.681C114.967 138.399 115.891 137.658 116.521 136.457C117.139 135.213 117.495 133.641 117.588 131.74L116.982 109.804L126.381 107.626L127.024 130.859C127.007 131.551 127.088 132.266 127.266 133.004C127.475 133.872 127.823 134.457 128.309 134.757C128.828 135.003 129.566 135.016 130.523 134.794C131.742 134.511 132.66 133.748 133.279 132.504C133.942 131.251 134.324 129.695 134.427 127.837L137.169 127.201C136.69 132.264 135.459 135.919 133.474 138.167C131.522 140.362 129.35 141.737 126.957 142.291C125.086 142.725 123.459 142.552 122.076 141.772C120.737 140.982 119.712 139.592 119.002 137.601C118.099 140.333 116.925 142.324 115.481 143.575C114.081 144.817 112.532 145.634 110.835 146.028ZM133.814 105.903L143.213 103.725L143.339 107.959C144.504 106.314 145.59 105.008 146.597 104.04C147.648 103.063 148.87 102.413 150.262 102.091C151.654 101.768 152.858 101.994 153.871 102.767C154.928 103.531 155.619 104.586 155.944 105.932C156.248 107.191 156.102 108.394 155.505 109.541C154.909 110.688 153.871 111.433 152.392 111.776C151.435 111.997 150.73 111.932 150.277 111.578C149.857 111.171 149.455 110.553 149.072 109.725C148.805 109.191 148.575 108.809 148.381 108.579C148.188 108.348 147.917 108.274 147.569 108.354C146.655 108.566 145.919 108.943 145.361 109.485C144.835 109.974 144.182 110.79 143.402 111.934L144.151 137.894L134.752 140.072L133.814 105.903ZM177.254 147.415C175.165 147.899 173.294 147.76 171.639 146.997C169.985 146.234 168.912 144.832 168.419 142.791C167.822 140.316 168.341 138.087 169.976 136.103C171.622 134.163 173.868 132.336 176.717 130.621L176.667 126.988C175.024 129.89 172.702 131.689 169.699 132.385C167.219 132.96 164.948 132.592 162.886 131.282C160.824 129.972 159.358 127.515 158.488 123.911C157.713 120.698 157.532 117.186 157.946 113.377C158.392 109.514 159.584 106.074 161.521 103.058C163.491 99.9876 166.238 98.0441 169.763 97.2273C171.547 96.8138 172.947 96.8101 173.964 97.2163C174.981 97.6225 175.61 98.325 175.851 99.3236L175.945 99.7144L175.846 96.1612L185.245 93.9829L186.075 125.701C187.996 124.523 189.42 123.092 190.346 121.41C191.273 119.728 191.841 117.419 192.052 114.482L194.793 113.846C194.55 117.983 193.648 121.195 192.087 123.483C190.515 125.727 188.545 127.467 186.179 128.703L186.331 133.62C186.477 138.033 185.672 141.269 183.917 143.326C182.173 145.427 179.952 146.79 177.254 147.415ZM172.418 125.084C173.418 124.852 174.331 124.159 175.155 123.005C175.98 121.851 176.399 120.448 176.413 118.794L176.018 102.586C175.892 102.065 175.549 101.594 174.988 101.174C174.417 100.711 173.674 100.585 172.761 100.796C171.02 101.2 169.7 102.583 168.8 104.947C167.889 107.267 167.388 109.951 167.296 112.998C167.194 116.002 167.405 118.589 167.928 120.76C168.452 122.931 169.092 124.25 169.848 124.717C170.647 125.173 171.504 125.296 172.418 125.084ZM174.527 142.683C175.267 142.511 175.864 141.845 176.319 140.685C176.775 139.525 176.973 137.966 176.914 136.008L176.85 134.029C172.963 136.58 171.276 138.92 171.789 141.048C171.925 141.612 172.242 142.066 172.738 142.409C173.234 142.753 173.831 142.844 174.527 142.683ZM204.282 124.37C201.062 125.116 198.361 124.871 196.178 123.635C193.986 122.355 192.46 119.935 191.601 116.374C190.878 113.378 190.669 109.942 190.975 106.066C191.28 102.19 192.446 98.6412 194.471 95.4208C196.487 92.1569 199.539 90.051 203.63 89.103C208.416 87.9937 211.312 89.5232 212.318 93.6916C212.905 96.1232 212.748 98.5207 211.848 100.884C210.948 103.248 209.497 105.326 207.494 107.12C205.481 108.87 203.19 110.135 200.622 110.914C200.849 112.236 201.015 113.115 201.12 113.549C201.633 115.677 202.354 117.046 203.282 117.656C204.2 118.222 205.485 118.314 207.139 117.931C209.489 117.386 211.359 116.38 212.751 114.911C214.186 113.432 215.637 111.354 217.105 108.675L219.324 108.161C216.432 117.313 211.418 122.716 204.282 124.37ZM200.389 107.666C201.978 107.206 203.365 106.289 204.55 104.914C205.778 103.529 206.633 101.932 207.116 100.124C207.642 98.3057 207.69 96.5064 207.261 94.7262C206.831 92.9459 206.073 92.1818 204.985 92.434C203.418 92.797 202.204 94.5228 201.341 97.6113C200.521 100.69 200.204 104.041 200.389 107.666ZM216.485 86.7426L225.884 84.5643L226.01 88.799C227.175 87.1535 228.261 85.8473 229.268 84.8802C230.319 83.9031 231.541 83.2532 232.933 82.9305C234.325 82.6078 235.529 82.8333 236.542 83.607C237.599 84.3707 238.29 85.4255 238.615 86.7716C238.919 88.0308 238.773 89.2338 238.176 90.3807C237.58 91.5275 236.542 92.2724 235.063 92.6153C234.106 92.8372 233.401 92.7713 232.948 92.4178C232.528 92.0108 232.126 91.3932 231.743 90.5651C231.476 90.0309 231.246 89.6487 231.052 89.4184C230.859 89.1881 230.588 89.1133 230.24 89.194C229.326 89.4058 228.59 89.7827 228.032 90.3248C227.506 90.8133 226.853 91.6295 226.073 92.7733L226.822 118.733L217.423 120.912L216.485 86.7426Z" fill="#363636"/>
<defs>
<filter id="filter0_d_76_367" x="27.667" y="0" width="244.667" height="240" filterUnits="userSpaceOnUse" color-interpolation-filters="sRGB">
<feFlood flood-opacity="0" result="BackgroundImageFix"/>
<feColorMatrix in="SourceAlpha" type="matrix" values="0 0 0 0 0 0 0 0 0 0 0 0 0 0 0 0 0 0 127 0" result="hardAlpha"/>
<feOffset/>
<feGaussianBlur stdDeviation="2.5"/>
<feComposite in2="hardAlpha" operator="out"/>
<feColorMatrix type="matrix" values="0 0 0 0 0 0 0 0 0 0 0 0 0 0 0 0 0 0 0.25 0"/>
<feBlend mode="normal" in2="BackgroundImageFix" result="effect1_dropShadow_76_367"/>
<feBlend mode="normal" in="SourceGraphic" in2="effect1_dropShadow_76_367" result="shape"/>
</filter>
</defs>
</svg>
