<svg width="464" height="240" viewBox="0 0 464 240" fill="none" xmlns="http://www.w3.org/2000/svg">
<path fill-rule="evenodd" clip-rule="evenodd" d="M0 86.2843L38.864 120L0 153.716V153.824H120V86.1765H0V86.2843Z" fill="white"/>
<path fill-rule="evenodd" clip-rule="evenodd" d="M463.921 153.647L425.125 120L464 86.2841L464 85.9999L344 85.9999L344 153.647L463.921 153.647Z" fill="white"/>
<g filter="url(#filter0_d_12_448)">
<path fill-rule="evenodd" clip-rule="evenodd" d="M232 235C296.802 235 349.334 183.513 349.334 120C349.334 56.4873 296.802 5 232 5C167.199 5 114.667 56.4873 114.667 120C114.667 183.513 167.199 235 232 235ZM232 221.028C288.929 221.028 335.078 175.796 335.078 120C335.078 64.2037 288.929 18.972 232 18.972C175.072 18.972 128.922 64.2037 128.922 120C128.922 175.796 175.072 221.028 232 221.028Z" fill="white"/>
<ellipse cx="232.001" cy="120" rx="94.3268" ry="92.451" fill="white"/>
</g>
<path d="M169.992 152.078C168.251 152.482 166.639 152.466 165.156 152.03C163.726 151.628 162.797 150.537 162.367 148.756C162.095 147.627 162.074 146.303 162.305 144.782C163.297 145.469 164.162 145.911 164.898 146.107C165.678 146.293 166.46 146.295 167.243 146.113C169.419 145.609 170.736 144.02 171.193 141.347C171.695 138.663 171.589 135.845 170.877 132.892C169.546 127.378 166.814 125.099 162.68 126.058C161.505 126.33 160.52 126.627 159.725 126.949L160.391 153.134L150.992 155.313L149.875 111.832L159.221 108.291L159.642 123.461L160.033 123.37C161.687 122.987 163.106 122.108 164.29 120.733C165.464 119.314 166.293 117.701 166.775 115.893C167.247 114.041 167.284 112.29 166.886 110.64C166.404 108.643 165.283 107.138 163.522 106.124C161.805 105.101 159.489 104.927 156.574 105.603C153.919 106.218 151.477 107.426 149.246 109.227C147.006 110.984 145.368 113.243 144.334 116.005C143.344 118.756 143.257 121.825 144.075 125.212C144.462 126.818 144.887 127.912 145.349 128.493C145.8 129.03 146.036 129.342 146.057 129.429C143.751 129.963 141.9 129.911 140.505 129.271C139.1 128.588 138.141 127.183 137.627 125.055C136.915 122.103 137.349 119.045 138.929 115.882C140.509 112.719 142.933 109.911 146.201 107.457C149.458 104.96 153.109 103.242 157.156 102.304C160.202 101.598 162.885 101.481 165.204 101.952C167.523 102.423 169.371 103.325 170.749 104.656C172.171 105.977 173.107 107.571 173.557 109.438C174.039 111.435 173.94 113.499 173.259 115.628C172.578 117.757 171.334 119.65 169.529 121.307C172.255 121.179 174.484 121.946 176.218 123.608C177.941 125.226 179.121 127.359 179.76 130.008C180.358 132.483 180.528 135.286 180.273 138.417C180.061 141.538 179.124 144.414 177.462 147.046C175.832 149.625 173.343 151.302 169.992 152.078ZM192.835 146.028C190.746 146.512 188.892 146.254 187.272 145.254C185.696 144.244 184.594 142.436 183.965 139.831C183.703 138.745 183.537 137.294 183.466 135.476L182.86 113.54L192.259 111.362L192.903 134.596C192.929 135.277 193.01 135.9 193.147 136.465C193.576 138.245 194.444 138.984 195.749 138.681C196.967 138.399 197.891 137.658 198.521 136.457C199.139 135.213 199.495 133.641 199.588 131.74L198.982 109.804L208.381 107.626L209.024 130.859C209.007 131.551 209.088 132.266 209.266 133.004C209.475 133.872 209.823 134.457 210.309 134.757C210.828 135.003 211.566 135.016 212.523 134.794C213.742 134.511 214.66 133.748 215.279 132.504C215.942 131.251 216.324 129.695 216.427 127.837L219.169 127.201C218.69 132.264 217.459 135.919 215.474 138.167C213.522 140.362 211.35 141.737 208.957 142.291C207.086 142.725 205.459 142.552 204.076 141.772C202.737 140.982 201.712 139.592 201.002 137.601C200.099 140.333 198.925 142.324 197.481 143.575C196.081 144.817 194.532 145.634 192.835 146.028ZM215.814 105.903L225.213 103.725L225.339 107.959C226.504 106.314 227.59 105.008 228.597 104.04C229.648 103.063 230.87 102.413 232.262 102.091C233.654 101.768 234.858 101.994 235.871 102.767C236.928 103.531 237.619 104.586 237.944 105.932C238.248 107.191 238.102 108.394 237.505 109.541C236.909 110.688 235.871 111.433 234.392 111.776C233.435 111.997 232.73 111.932 232.277 111.578C231.857 111.171 231.455 110.553 231.072 109.725C230.805 109.191 230.575 108.809 230.381 108.579C230.188 108.348 229.917 108.274 229.569 108.354C228.655 108.566 227.919 108.943 227.361 109.485C226.835 109.974 226.182 110.79 225.402 111.934L226.151 137.894L216.752 140.072L215.814 105.903ZM259.254 147.415C257.165 147.899 255.294 147.76 253.639 146.997C251.985 146.234 250.912 144.832 250.419 142.791C249.822 140.316 250.341 138.087 251.976 136.103C253.622 134.163 255.868 132.336 258.717 130.621L258.667 126.988C257.024 129.89 254.702 131.689 251.699 132.385C249.219 132.96 246.948 132.592 244.886 131.282C242.824 129.972 241.358 127.515 240.488 123.911C239.713 120.698 239.532 117.186 239.946 113.377C240.392 109.514 241.584 106.074 243.521 103.058C245.491 99.9876 248.238 98.0441 251.763 97.2273C253.547 96.8138 254.947 96.8101 255.964 97.2163C256.981 97.6225 257.61 98.325 257.851 99.3236L257.945 99.7144L257.846 96.1612L267.245 93.9829L268.075 125.701C269.996 124.523 271.42 123.092 272.346 121.41C273.273 119.728 273.841 117.419 274.052 114.482L276.793 113.846C276.55 117.983 275.648 121.195 274.087 123.483C272.515 125.727 270.545 127.467 268.179 128.703L268.331 133.62C268.477 138.033 267.672 141.269 265.917 143.326C264.173 145.427 261.952 146.79 259.254 147.415ZM254.418 125.084C255.418 124.852 256.331 124.159 257.155 123.005C257.98 121.851 258.399 120.448 258.413 118.794L258.018 102.586C257.892 102.065 257.549 101.594 256.988 101.174C256.417 100.711 255.674 100.585 254.761 100.796C253.02 101.2 251.7 102.583 250.8 104.947C249.889 107.267 249.388 109.951 249.296 112.998C249.194 116.002 249.405 118.589 249.928 120.76C250.452 122.931 251.092 124.25 251.848 124.717C252.647 125.173 253.504 125.296 254.418 125.084ZM256.527 142.683C257.267 142.511 257.864 141.845 258.319 140.685C258.775 139.525 258.973 137.966 258.914 136.008L258.85 134.029C254.963 136.58 253.276 138.92 253.789 141.048C253.925 141.612 254.242 142.066 254.738 142.409C255.234 142.753 255.831 142.844 256.527 142.683ZM286.282 124.37C283.062 125.116 280.361 124.871 278.178 123.635C275.986 122.355 274.46 119.935 273.601 116.374C272.878 113.378 272.669 109.942 272.975 106.066C273.28 102.19 274.446 98.6412 276.471 95.4208C278.487 92.1569 281.539 90.051 285.63 89.103C290.416 87.9937 293.312 89.5232 294.318 93.6916C294.905 96.1232 294.748 98.5207 293.848 100.884C292.948 103.248 291.497 105.326 289.494 107.12C287.481 108.87 285.19 110.135 282.622 110.914C282.849 112.236 283.015 113.115 283.12 113.549C283.633 115.677 284.354 117.046 285.282 117.656C286.2 118.222 287.485 118.314 289.139 117.931C291.489 117.386 293.359 116.38 294.751 114.911C296.186 113.432 297.637 111.354 299.105 108.675L301.324 108.161C298.432 117.313 293.418 122.716 286.282 124.37ZM282.389 107.666C283.978 107.206 285.365 106.289 286.55 104.914C287.778 103.529 288.633 101.932 289.116 100.124C289.642 98.3057 289.69 96.5064 289.261 94.7262C288.831 92.9459 288.073 92.1818 286.985 92.434C285.418 92.797 284.204 94.5228 283.341 97.6113C282.521 100.69 282.204 104.041 282.389 107.666ZM298.485 86.7426L307.884 84.5643L308.01 88.799C309.175 87.1535 310.261 85.8473 311.268 84.8802C312.319 83.9031 313.541 83.2532 314.933 82.9305C316.325 82.6078 317.529 82.8333 318.542 83.607C319.599 84.3707 320.29 85.4255 320.615 86.7716C320.919 88.0308 320.773 89.2338 320.176 90.3807C319.58 91.5275 318.542 92.2724 317.063 92.6153C316.106 92.8372 315.401 92.7713 314.948 92.4178C314.528 92.0108 314.126 91.3932 313.743 90.5651C313.476 90.0309 313.246 89.6487 313.052 89.4184C312.859 89.1881 312.588 89.1133 312.24 89.194C311.326 89.4058 310.59 89.7827 310.032 90.3248C309.506 90.8133 308.853 91.6295 308.073 92.7733L308.822 118.733L299.423 120.912L298.485 86.7426Z" fill="#363636"/>
<defs>
<filter id="filter0_d_12_448" x="109.667" y="0" width="244.667" height="240" filterUnits="userSpaceOnUse" color-interpolation-filters="sRGB">
<feFlood flood-opacity="0" result="BackgroundImageFix"/>
<feColorMatrix in="SourceAlpha" type="matrix" values="0 0 0 0 0 0 0 0 0 0 0 0 0 0 0 0 0 0 127 0" result="hardAlpha"/>
<feOffset/>
<feGaussianBlur stdDeviation="2.5"/>
<feComposite in2="hardAlpha" operator="out"/>
<feColorMatrix type="matrix" values="0 0 0 0 0 0 0 0 0 0 0 0 0 0 0 0 0 0 0.25 0"/>
<feBlend mode="normal" in2="BackgroundImageFix" result="effect1_dropShadow_12_448"/>
<feBlend mode="normal" in="SourceGraphic" in2="effect1_dropShadow_12_448" result="shape"/>
</filter>
</defs>
</svg>
