<svg xmlns="http://www.w3.org/2000/svg" viewBox="0 0 500 500"><g id="freepik--background-complete--inject-40"><rect x="66.29" y="45.76" width="75.32" height="78.51" style="fill:#e0e0e0"></rect><rect x="61.19" y="45.76" width="75.32" height="78.51" style="fill:#fafafa"></rect><path d="M136.54,124.3H61.17V45.74h75.37Zm-75.32,0h75.27V45.78H61.22Z" style="fill:#e0e0e0"></path><rect x="71.32" y="56.32" width="55.07" height="57.4" style="fill:#fafafa"></rect><path d="M71.32,114.1A9.35,9.35,0,0,1,70,115.68c-.88.93-2.12,2.19-3.5,3.55s-2.66,2.58-3.6,3.44A8.42,8.42,0,0,1,61.27,124a8.6,8.6,0,0,1,1.35-1.57c.88-.93,2.12-2.19,3.51-3.56s2.67-2.59,3.6-3.45A9,9,0,0,1,71.32,114.1Z" style="fill:#e0e0e0"></path><path d="M126.39,114a9.35,9.35,0,0,1,1.58,1.36c.93.88,2.18,2.12,3.55,3.5s2.58,2.66,3.44,3.6a9.54,9.54,0,0,1,1.33,1.59,8.43,8.43,0,0,1-1.58-1.35c-.93-.88-2.18-2.12-3.55-3.51s-2.59-2.67-3.45-3.6A8.43,8.43,0,0,1,126.39,114Z" style="fill:#e0e0e0"></path><path d="M126.24,56.47a8.79,8.79,0,0,1,1.36-1.58c.88-.93,2.11-2.19,3.5-3.55s2.66-2.58,3.59-3.44a8.26,8.26,0,0,1,1.6-1.33,9.11,9.11,0,0,1-1.36,1.57c-.87.93-2.11,2.19-3.5,3.56s-2.67,2.59-3.61,3.45A9.17,9.17,0,0,1,126.24,56.47Z" style="fill:#e0e0e0"></path><path d="M71.17,56.61a9.35,9.35,0,0,1-1.58-1.36c-.93-.88-2.19-2.11-3.55-3.5s-2.58-2.66-3.44-3.6a8.42,8.42,0,0,1-1.33-1.59,8.22,8.22,0,0,1,1.57,1.35c.93.88,2.19,2.12,3.56,3.51S69,54.09,69.85,55A8.74,8.74,0,0,1,71.17,56.61Z" style="fill:#e0e0e0"></path><path d="M126.24,113.72a1.23,1.23,0,0,1,0-.28c0-.19,0-.46,0-.8,0-.72,0-1.75,0-3.1,0-2.72,0-6.67-.06-11.7,0-10-.06-24.37-.11-41.52l.22.21-54.92,0h0l.24-.24c0,21.07,0,40.78,0,57.4l-.21-.21,39.76.11,11.17,0,3,0h0l-2.91,0-11.12,0-39.9.11h-.21v-.21c0-16.62,0-36.33,0-57.4v-.25h.24l54.92,0h.21v.22c0,17.2-.08,31.57-.11,41.66,0,5,0,8.94,0,11.65q0,2,0,3.06c0,.33,0,.59,0,.78A2.28,2.28,0,0,1,126.24,113.72Z" style="fill:#e0e0e0"></path><path d="M100.47,78.84a9.85,9.85,0,0,0-17.26,1.61,11.33,11.33,0,0,0,.14,8.69A15.6,15.6,0,0,0,89,95.86c6.43,4.38,15.77,4.18,21.76-.8a12,12,0,0,0,4.41-7.25,9,9,0,0,0-13.34-9.14" style="fill:#e0e0e0"></path><path d="M100.49,78.83a3.42,3.42,0,0,0-3.64-2.51L99,78.88A3.37,3.37,0,0,0,96.35,81c-.1.26-.13.63.12.76a.64.64,0,0,0,.54,0l2.62-1.09a9.06,9.06,0,0,0,1.56,4.07,10.55,10.55,0,0,0,1-4.09l2.89,1.28a4.21,4.21,0,0,0-1.36-2.14,7.24,7.24,0,0,0,2.42-1c.22-.14.47-.37.37-.62s-.31-.23-.52-.25A9.54,9.54,0,0,0,100.47,79" style="fill:#ebebeb"></path><path d="M100.3,79.91a18.87,18.87,0,0,0-.72-8.73c.69-.16,1.54-.26,2,.29a1.86,1.86,0,0,1,.3,1.16,20.62,20.62,0,0,1-1.55,8.06" style="fill:#ebebeb"></path><path d="M86.25,90.39s-.18-.14-.45-.45a8.14,8.14,0,0,1-1-1.45,9.12,9.12,0,0,1-.91-5.64,9,9,0,0,1,2.68-5A8.27,8.27,0,0,1,88,76.75a1.94,1.94,0,0,1,.58-.28,16.66,16.66,0,0,0-1.8,1.5A9.09,9.09,0,0,0,85,88.39,18.27,18.27,0,0,0,86.25,90.39Z" style="fill:#fff"></path><path d="M89.16,92.59c0,.08-.49,0-1-.35s-.7-.73-.64-.78.4.22.83.52S89.19,92.5,89.16,92.59Z" style="fill:#fff"></path><path d="M54,333.08a31.06,31.06,0,0,0-13.29-4.57c-2.17-.22-4.54-.16-6.29,1.16-.36.28-.73.69-.64,1.14a1.4,1.4,0,0,0,.61.79A19,19,0,0,0,54,333.08" style="fill:#e0e0e0"></path><path d="M53.66,332.71a64.31,64.31,0,0,1-8.58-7.55,21.82,21.82,0,0,1-5.39-10,4,4,0,0,1,.43-3.33c6.84,5.35,12.22,12.26,13.54,20.84" style="fill:#e0e0e0"></path><path d="M53.93,333a30.93,30.93,0,0,1,.16-11.27,15.25,15.25,0,0,1,6-9.3c1.18,2.77.68,6-.16,8.84a42.7,42.7,0,0,1-6,12.53" style="fill:#e0e0e0"></path><path d="M60.64,345.05A19.7,19.7,0,0,0,50,350.44a20.25,20.25,0,0,0-6.1,10.47c4-.25,7.38-3.06,9.84-6.22s4.16-6.62,6.86-9.58" style="fill:#e0e0e0"></path><path d="M62.09,347a26.27,26.27,0,0,1,3-24.86c2.32,8.25,1.47,17.57-3,24.86" style="fill:#e0e0e0"></path><path d="M71,357.53A19,19,0,0,0,52.78,368c-.22.45-.42,1-.12,1.42a1.37,1.37,0,0,0,1.2.36c3.59-.24,6.76-2.39,9.38-4.84s4.9-5.29,7.8-7.42" style="fill:#e0e0e0"></path><path d="M70.67,357A34,34,0,0,1,70.33,338c.67-2.43,1.79-5,4-6.13a.77.77,0,0,1,.62-.11.83.83,0,0,1,.39.45,11.41,11.41,0,0,1,1,5.42,34.18,34.18,0,0,1-.85,5.5c-.71,3.35-1.09,7-2.93,9.85a21.54,21.54,0,0,0-1.17,2.17c-.35.73-.35,1-.67,1.58" style="fill:#e0e0e0"></path><path d="M94.13,360.45c-1.74-6.62.11-14.63,4.27-20.05.31-.4.72-.83,1.22-.78.77.07,1,1.09.93,1.86a36.26,36.26,0,0,1-6.42,19" style="fill:#e0e0e0"></path><path d="M96.25,361.89A29.16,29.16,0,0,0,120.17,357a19.34,19.34,0,0,0-13-1.59c-4.33,1-8.28,2.92-11,6.45" style="fill:#e0e0e0"></path><path d="M98,357.49c4.5-7.33,13.12-12.12,21.71-12.56-1,3.5-3.86,6.21-7.1,7.86a39.4,39.4,0,0,1-10.42,3c-1.39.27-3.29.57-4.19,1.66" style="fill:#e0e0e0"></path><path d="M94.58,336.13a62.54,62.54,0,0,0,2.77-12.72,21.14,21.14,0,0,0-2.53-12.58c-4.2,8.13-4.63,17.63-.37,25.74" style="fill:#e0e0e0"></path><path d="M108.72,329c4.92-8.93,14.94-16.06,25.09-17.06-3.92,9.74-14.59,17.27-25.09,17.06" style="fill:#e0e0e0"></path><path d="M105.63,330.73c7.33,1.12,13.57,5.8,20.42,8.63a9.21,9.21,0,0,0,4.62.89,3.61,3.61,0,0,0,2.26-6.39,10,10,0,0,0-3.35-2c-7.46-3.1-15.46-3.18-23.32-1.3" style="fill:#e0e0e0"></path><path d="M101.39,335.87c1.66.48,2.23,1.33,3.54,2.45a38.12,38.12,0,0,0,15.49,8c.59.14,1.36.2,1.66-.33s-.07-1-.4-1.45a21.32,21.32,0,0,0-9.35-6.35c-3.58-1.33-6.67-2.93-10.94-2.59" style="fill:#e0e0e0"></path><path d="M96.61,304.83a29.28,29.28,0,0,0,22.46,7.64,1.5,1.5,0,0,0,1-.37c.56-.61-.12-1.56-.78-2.07-6.6-5.15-14.6-7.29-22.71-5.2" style="fill:#e0e0e0"></path><path d="M102.28,302.75a31.31,31.31,0,0,1,28-4.62A22.31,22.31,0,0,1,117,304a42.29,42.29,0,0,1-14.68-1.24" style="fill:#e0e0e0"></path><path d="M100,288.49c-.65-6.6-.23-11.8-.69-18.43,0-.52-.15-1.16-.65-1.35-.68-.27-1.26.58-1.49,1.28A21.1,21.1,0,0,0,100,288.34" style="fill:#e0e0e0"></path><path d="M99.55,289.21a38.7,38.7,0,0,0,10.92-10.61c2.16-3,4-6.49,3.49-10.11a10.46,10.46,0,0,0-7.88,3.91,22.07,22.07,0,0,0-4,8.08c-.87,2.9-1.48,5.88-2.51,8.73" style="fill:#e0e0e0"></path><path d="M110.28,286.23a88,88,0,0,0,26.88-15.84c-3.21-1.3-6.89-.52-10.1.77a31.87,31.87,0,0,0-16.92,15" style="fill:#e0e0e0"></path><path d="M102.57,292.82a54.43,54.43,0,0,0,14.92.07c4.84-.8,9.41-2.72,13.94-4.63a1.59,1.59,0,0,0,.94-.71,1.09,1.09,0,0,0-.34-1.2,2.89,2.89,0,0,0-1.19-.55c-4.91-1.38-10.22-.73-15,.9a70.14,70.14,0,0,0-13.22,6.12" style="fill:#e0e0e0"></path><path d="M74.24,305.05c-3.39-6.83-3.17-14.8-.24-21.85,2,3.14,2.31,7.13,1.93,10.87s-1.51,7.57-1.59,11.32" style="fill:#e0e0e0"></path><path d="M60.71,298.23a30.46,30.46,0,0,0-22.64,9.65,21.21,21.21,0,0,0,12.4-2.3,62.77,62.77,0,0,0,10.63-7.11" style="fill:#e0e0e0"></path><path d="M51.62,295.19c-4.13-.33-8.11-.85-12.09.37a14.52,14.52,0,0,0-9.21,7.82,21.94,21.94,0,0,0,11.33-2.14,65.4,65.4,0,0,0,10-6.05" style="fill:#e0e0e0"></path><path d="M65.08,295.33c-3.72-2.44-7.54-4.92-11.87-5.93s-9.35-.26-12.37,3c3.51,2.06,7.76,2.3,11.83,2.3s9-.05,12.88,1.31" style="fill:#e0e0e0"></path><path d="M65.11,295.53c-6.36-6.25-8.77-17.46-6.22-26a39.63,39.63,0,0,1,6.22,26" style="fill:#e0e0e0"></path><path d="M82.59,277.84c1.2-2.79,2-5.72,3.12-8.56a24.56,24.56,0,0,1,4.45-7.88A11.7,11.7,0,0,1,98,257.32a31.71,31.71,0,0,1-15.28,20.56" style="fill:#e0e0e0"></path><path d="M79.43,281.52c-2-2.73-4.28-6.44-7-8.48s-6.2-3.27-9.48-2.49a22.09,22.09,0,0,0,16.45,11" style="fill:#e0e0e0"></path><path d="M80.06,278.06a47.23,47.23,0,0,1-3.14-10.16,15.93,15.93,0,0,1,1.59-10.33c3.49,6.6,4.62,13.69,1.73,20.57" style="fill:#e0e0e0"></path><path d="M82.62,257.57c2-6.54,8-11.35,14.44-13.56a5.36,5.36,0,0,1,2.53-.38,2.19,2.19,0,0,1,1.86,1.55c.24,1.12-.68,2.11-1.55,2.85a48.86,48.86,0,0,1-17.28,9.54" style="fill:#e0e0e0"></path><path d="M82.69,252.23c.26-4.22.52-8.5,1.89-12.5s4-7.74,7.86-9.49c.66,4.26-1.22,8.5-3.49,12.16s-5,7.13-6.36,11.22" style="fill:#e0e0e0"></path><path d="M82.59,255.13c-1.63-4.77-1.8-10.82-4.66-15-2-2.9-5.19-4.88-6.91-8a12.08,12.08,0,0,0,.41,9,26,26,0,0,0,5.28,7.56c2.11,2.25,3.92,4,5.88,6.34" style="fill:#e0e0e0"></path><path d="M82.62,395.51c-.12,0-.23-31.8-.24-71s.08-71,.21-71,.24,31.79.25,71S82.75,395.51,82.62,395.51Z" style="fill:#e0e0e0"></path><path d="M110.41,300.25a6.45,6.45,0,0,1-1.19.45l-3.29,1.11c-2.78.95-6.59,2.32-10.73,4s-8,3.19-10.15,5.09a7.44,7.44,0,0,0-2,2.7c-.32.75-.38,1.21-.42,1.2a1.26,1.26,0,0,1,0-.34,5.74,5.74,0,0,1,.24-.92,7.12,7.12,0,0,1,2-2.88,17.65,17.65,0,0,1,4.41-2.74C91,307.11,93,306.25,95,305.4c4.15-1.7,8-3,10.8-3.9,1.4-.43,2.54-.76,3.34-1A6.67,6.67,0,0,1,110.41,300.25Z" style="fill:#e0e0e0"></path><path d="M119.52,277.88a2.12,2.12,0,0,1-.33.36l-1,1-3.81,3.46L101.68,294c-5,4.4-9.23,8.61-12.19,11.78-1.49,1.58-2.66,2.9-3.45,3.81l-.93,1a2,2,0,0,1-.34.35,2.08,2.08,0,0,1,.27-.41c.2-.25.48-.63.86-1.1.76-1,1.89-2.3,3.35-3.92a162.1,162.1,0,0,1,12.12-11.91c5-4.39,9.49-8.34,12.77-11.19l3.91-3.35,1.07-.89A2.15,2.15,0,0,1,119.52,277.88Z" style="fill:#e0e0e0"></path><path d="M96.33,298.43c-.13-.06.91-2.45,1.94-5.47s1.53-5.56,1.66-5.54a18.49,18.49,0,0,1-1.23,5.69,34.74,34.74,0,0,1-1.54,3.82A6.09,6.09,0,0,1,96.33,298.43Z" style="fill:#e0e0e0"></path><path d="M82.65,317.67a5.93,5.93,0,0,1-.76-.88l-2-2.51c-1.65-2.12-3.91-5-6.46-8.25s-4.88-6.08-6.57-8.16l-2-2.47a5.78,5.78,0,0,1-.69-.95,5.61,5.61,0,0,1,.83.83c.51.55,1.23,1.37,2.11,2.38,1.75,2,4.13,4.87,6.68,8.08s4.78,6.17,6.36,8.35c.78,1.08,1.41,2,1.83,2.59A4.9,4.9,0,0,1,82.65,317.67Z" style="fill:#e0e0e0"></path><path d="M76.56,309.85A11.15,11.15,0,0,1,74,305.07a13.54,13.54,0,0,1-.58-4.82l.2,0c-.09.37-.16.56-.19.56s0-.21,0-.59h.2a22.41,22.41,0,0,0,.82,4.69A35.16,35.16,0,0,0,76.56,309.85Z" style="fill:#e0e0e0"></path><path d="M68.69,300a7.92,7.92,0,0,0-1.78-1,11.91,11.91,0,0,0-4.95-.39,30,30,0,0,0-5,.8,14.37,14.37,0,0,1-2,.49,7.16,7.16,0,0,1,2-.8,22.52,22.52,0,0,1,5-.95,10.78,10.78,0,0,1,5.1.55A3.09,3.09,0,0,1,68.69,300Z" style="fill:#e0e0e0"></path><path d="M66.83,297.56c0,.07-1-.42-2.73-1a28.19,28.19,0,0,0-6.82-1.4,28.71,28.71,0,0,0-6.94.35c-1.76.32-2.83.65-2.85.57a3,3,0,0,1,.72-.31,19.23,19.23,0,0,1,2.06-.57,24.16,24.16,0,0,1,13.94,1.06,18.14,18.14,0,0,1,2,.88A2.68,2.68,0,0,1,66.83,297.56Z" style="fill:#e0e0e0"></path><path d="M82.59,287.42a58.37,58.37,0,0,1-2-6.92,57,57,0,0,1-1.55-7,54.48,54.48,0,0,1,2,6.92A58,58,0,0,1,82.59,287.42Z" style="fill:#e0e0e0"></path><path d="M82.72,287.42a32.8,32.8,0,0,0-2.21-4.14,18.34,18.34,0,0,0-3.25-3.36,3.12,3.12,0,0,1,1.26.65A10.44,10.44,0,0,1,80.89,283,9.23,9.23,0,0,1,82.72,287.42Z" style="fill:#e0e0e0"></path><path d="M82.62,378.56c-.05,0-.14-.77-.5-2.12a30,30,0,0,0-2.12-5.5,76.58,76.58,0,0,0-11.28-15.89c-2.52-2.87-5-5.59-7-8.18a57.76,57.76,0,0,1-5-7.26,34.78,34.78,0,0,1-2.54-5.38c-.23-.66-.4-1.18-.5-1.54a2.88,2.88,0,0,1-.13-.55s.28.73.8,2a40.14,40.14,0,0,0,2.65,5.28A61.27,61.27,0,0,0,62,346.6c2.08,2.57,4.53,5.27,7,8.15,5.09,5.72,9.08,11.48,11.22,16.05a27.59,27.59,0,0,1,2,5.6c.14.69.24,1.23.28,1.6A2.36,2.36,0,0,1,82.62,378.56Z" style="fill:#e0e0e0"></path><path d="M107.73,350.19a9.35,9.35,0,0,1-1.31.74,30,30,0,0,0-3.42,2.26,39.57,39.57,0,0,0-4.48,4.09c-1.57,1.66-3.19,3.59-4.85,5.66-3.3,4.15-6.4,7.82-8.25,10.75-.94,1.46-1.62,2.68-2.07,3.54a10.06,10.06,0,0,1-.73,1.33,1.31,1.31,0,0,1,.13-.37c.09-.24.23-.6.44-1a33.16,33.16,0,0,1,2-3.63,118,118,0,0,1,8.16-10.87c1.66-2.07,3.3-4,4.91-5.66a36.07,36.07,0,0,1,4.59-4.06,22.81,22.81,0,0,1,3.53-2.15c.43-.22.79-.36,1-.46A1.59,1.59,0,0,1,107.73,350.19Z" style="fill:#e0e0e0"></path><path d="M108.23,359.4a21.89,21.89,0,0,1-2.79.4,36.73,36.73,0,0,0-6.59,1.3,19.94,19.94,0,0,0-5.91,3.1c-1.36,1.05-2,1.92-2.07,1.87a2.23,2.23,0,0,1,.42-.64A10,10,0,0,1,92.73,364a18.12,18.12,0,0,1,6-3.29,29.69,29.69,0,0,1,6.7-1.18A14.87,14.87,0,0,1,108.23,359.4Z" style="fill:#e0e0e0"></path><path d="M91.69,365.06c-.15-.08,1.1-2,2.08-4.57s1.12-4.88,1.29-4.85a4.54,4.54,0,0,1,0,1.49,16.34,16.34,0,0,1-.81,3.52,17.39,17.39,0,0,1-1.62,3.22A4.63,4.63,0,0,1,91.69,365.06Z" style="fill:#e0e0e0"></path><path d="M115.87,325.49a1.92,1.92,0,0,1-.45.24l-1.31.59c-.57.25-1.26.56-2,1s-1.7.83-2.65,1.4l-1.52.86c-.53.3-1,.66-1.6,1-1.12.68-2.24,1.52-3.44,2.37a63.94,63.94,0,0,0-7.17,6.31,64.6,64.6,0,0,0-6.06,7.38c-.81,1.23-1.61,2.37-2.25,3.52-.33.56-.67,1.09-1,1.63l-.81,1.55c-.54,1-.93,1.9-1.31,2.7s-.67,1.5-.9,2.08-.4,1-.55,1.33a1.72,1.72,0,0,1-.22.45,2.22,2.22,0,0,1,.14-.48c.12-.36.28-.81.47-1.36a22,22,0,0,1,.83-2.12c.35-.82.72-1.76,1.25-2.75l.79-1.57c.27-.54.61-1.08.93-1.66.63-1.15,1.42-2.32,2.23-3.56a56.94,56.94,0,0,1,13.33-13.79c1.21-.85,2.35-1.68,3.48-2.35.57-.34,1.09-.7,1.63-1l1.54-.85c1-.55,1.9-.95,2.7-1.34s1.51-.68,2.09-.9l1.35-.52A2.6,2.6,0,0,1,115.87,325.49Z" style="fill:#e0e0e0"></path><path d="M96,338.81a3.18,3.18,0,0,1,1.1-1.63,6.89,6.89,0,0,1,4.4-1.69,12,12,0,0,1,4.63.91,6.22,6.22,0,0,1,1.75.85,11.37,11.37,0,0,1-1.85-.55,14.16,14.16,0,0,0-4.52-.75,7.16,7.16,0,0,0-4.2,1.48A13.49,13.49,0,0,0,96,338.81Z" style="fill:#e0e0e0"></path><path d="M93,341.87a16,16,0,0,0,1.25-4.06,16.26,16.26,0,0,0-.28-4.25,2.73,2.73,0,0,1,.52,1.18,8.32,8.32,0,0,1,.22,3.12,8.44,8.44,0,0,1-.93,3C93.41,341.54,93.07,341.9,93,341.87Z" style="fill:#e0e0e0"></path><path d="M60.66,383.11c.69,12.16,4.35,24.52,10,37h24.5c5.37-12.37,8.78-24.71,9.38-37Z" style="fill:#e0e0e0"></path><path d="M100.55,402.78c0,.13-8.06.23-18,.23s-18-.1-18-.23,8.06-.23,18-.23S100.55,402.65,100.55,402.78Z" style="fill:#fafafa"></path><path d="M100,407.18c0,.13-7.56.23-16.88.23s-16.89-.1-16.89-.23,7.56-.23,16.89-.23S100,407.06,100,407.18Z" style="fill:#fafafa"></path><path d="M71,391.09a69.39,69.39,0,0,1,0,11.29,69.39,69.39,0,0,1,0-11.29Z" style="fill:#fafafa"></path><path d="M84.16,391.09a74.38,74.38,0,0,1,0,11.69,74.38,74.38,0,0,1,0-11.69Z" style="fill:#fafafa"></path><path d="M96.48,391a77.21,77.21,0,0,1,0,11.91,77.21,77.21,0,0,1,0-11.91Z" style="fill:#fafafa"></path><path d="M103.74,391.09c0,.13-9.45.23-21.12.23s-21.13-.1-21.13-.23,9.46-.23,21.13-.23S103.74,391,103.74,391.09Z" style="fill:#fafafa"></path><rect x="291.68" y="31.86" width="140.63" height="252.63" style="fill:#ebebeb"></rect><rect x="297.3" y="39.19" width="127.94" height="237.78" style="fill:#fafafa"></rect><polygon points="438.26 286.77 432.31 284.49 432.31 27.58 438.26 27.58 438.26 286.77" style="fill:#e0e0e0"></polygon><rect x="297.3" y="107.59" width="130.72" height="2.53" style="fill:#e0e0e0"></rect><rect x="297.3" y="164.21" width="130.72" height="2.53" style="fill:#e0e0e0"></rect><rect x="297.3" y="220.84" width="130.72" height="2.53" style="fill:#e0e0e0"></rect><rect x="273.85" y="193.05" width="174.85" height="6.46" transform="translate(164.99 557.55) rotate(-90)" style="fill:#e0e0e0"></rect><rect x="321.94" y="39.19" width="2.93" height="69.67" style="fill:#e0e0e0"></rect><rect x="347.19" y="39.19" width="2.93" height="69.67" style="fill:#e0e0e0"></rect><rect x="372.45" y="39.19" width="2.93" height="69.67" style="fill:#e0e0e0"></rect><rect x="397.71" y="39.19" width="2.93" height="69.67" style="fill:#e0e0e0"></rect><rect x="285.74" y="27.58" width="5.95" height="258.48" style="fill:#e0e0e0"></rect><rect x="285.74" y="24.97" width="152.52" height="6.89" style="fill:#e0e0e0"></rect><rect x="281.52" y="287.62" width="160.77" height="6.42" style="fill:#e0e0e0"></rect><polygon points="432.31 284.49 442.29 287.62 281.52 287.62 291.68 284.49 432.31 284.49" style="fill:#e0e0e0"></polygon></g><g id="freepik--Floor--inject-40"><path d="M453.71,421.36c0,.14-91.21.26-203.7.26s-203.72-.12-203.72-.26,91.19-.26,203.72-.26S453.71,421.21,453.71,421.36Z" style="fill:#263238"></path></g><g id="freepik--bread-2--inject-40"><path d="M212.32,434.87l.34-19.31a2.66,2.66,0,0,1,2.09-2.55c4.35-.94,14.65-3.36,21.73-6.75,9.17-4.38,20.16-10.81,28-14,8.66-3.51,31.86-14.62,36.4-16.16a2.6,2.6,0,0,1,1.41-.08L390.5,395a3.11,3.11,0,0,0,.44.06c1.43.05,9.54.53,10,4.41.44,3.47-.1,16.38-.31,21.05a2.66,2.66,0,0,1-1.64,2.33c-8.14,3.35-45.71,19.14-55.06,28.7-10.5,10.73-22.79,19.92-27.64,20.14s-22.3-6.16-27.43-7.77c-4.64-1.45-63.68-22.5-74.79-26.46A2.66,2.66,0,0,1,212.32,434.87Z" style="fill:#ffbe9d"></path><path d="M401,399.43s-29,13.18-41.85,18.73S337,433.05,331.5,438.74s-8.21,9.5-17.3,9.75S277.65,437.75,263.45,432c-13.69-5.53-42.66-15.53-49.36-17.83a1.08,1.08,0,0,0-1.42,1l-.07,3.67-.31,17.92s71.47,25.49,76.59,27.1,22.57,8,27.43,7.77,17.14-9.41,27.64-20.14,56.62-29.34,56.62-29.34S401.5,403.69,401,399.43Z" style="fill:#eb996e"></path><path d="M263.63,399.49c-1.47.21-2.51,1.2-2.24,2.12s1.82,1.65,3.32,1.56,2.73-1,2.65-1.93-1.48-1.78-3-1.8" style="fill:#eb996e"></path><path d="M352.54,410.3c-1.46.21-2.5,1.2-2.23,2.12s1.81,1.65,3.32,1.56,2.73-1,2.64-1.93-1.47-1.77-3-1.8" style="fill:#eb996e"></path><path d="M353,406.19c-.84.12-1.45.69-1.29,1.23s1.05.95,1.92.9,1.58-.58,1.53-1.12-.85-1-1.73-1" style="fill:#eb996e"></path><path d="M334.5,422.14c-.85.12-1.45.69-1.29,1.23s1.05.95,1.92.89,1.57-.57,1.52-1.11-.85-1-1.72-1" style="fill:#eb996e"></path><path d="M255.79,402.05c-.85.12-1.45.7-1.29,1.23s1,1,1.91.9,1.58-.58,1.53-1.12-.85-1-1.73-1" style="fill:#eb996e"></path><path d="M214.09,414.18l.52.15,1.49.49,5.72,1.93c5,1.69,12.13,4.16,21,7.31,4.41,1.58,9.24,3.33,14.4,5.27s10.6,4.21,16.37,6.46,11.84,4.58,18.21,6.79q4.77,1.67,9.77,3.16a68.65,68.65,0,0,0,10.27,2.34,8.17,8.17,0,0,0,1.31.1c.44,0,.87.06,1.31,0l1.32-.07,1.31-.15a16.89,16.89,0,0,0,5-1.4c3.13-1.46,5.48-4,7.8-6.46a121,121,0,0,1,14.25-13.26,70.89,70.89,0,0,1,15.13-9l14-6.23,20.29-9,5.53-2.42,1.45-.62.49-.2s-.15.09-.47.25l-1.42.66-5.49,2.51L373.35,412l-14,6.29a70.77,70.77,0,0,0-15,9,121.62,121.62,0,0,0-14.17,13.23c-2.31,2.42-4.7,5.06-7.95,6.58a17.7,17.7,0,0,1-5.11,1.45l-1.34.14-1.34.08c-.44,0-.9,0-1.35,0a8.67,8.67,0,0,1-1.35-.1,71.26,71.26,0,0,1-10.36-2.36q-5-1.5-9.79-3.18c-6.38-2.22-12.45-4.56-18.22-6.83s-11.19-4.55-16.34-6.49-10-3.73-14.37-5.33l-20.91-7.47-5.68-2-1.48-.54C214.26,414.26,214.09,414.18,214.09,414.18Z" style="fill:#263238"></path><g style="opacity:0.2"><path d="M240.15,404.41c11.4,6.31,23.59,12.81,36.6,12.09,10-.56,19.25-5.37,28.3-9.72a372.11,372.11,0,0,1,49.23-19.59c-13-2.82-25.51-5.69-38.59-8.3-4-.8-11-2.3-13.48-2.93a3.31,3.31,0,0,0-1.87.32c-2.73,1.17-12.79,5.55-16,7-26.24,11.89-28.81,13.24-44.17,21.11"></path></g></g><g id="freepik--Bacon--inject-40"><path d="M198.4,331.31c-.32.82,11.46,44.33,11.46,44.33s29.54,7.33,43.54,3.63,55.13-18.29,64.86-19.88,38.63-.78,52.75.9,29.9,1.5,38.79-2l.21-2.39-18.69-36.8a136.52,136.52,0,0,1-32.45-.6c-18.54-2.44-43.43-3.89-63.68,4.62s-30.74,10.44-38.95,11.35c-7.71.86-52.27-5.13-57.63-5.56Z" style="fill:#FF81AE"></path><path d="M198.4,331.31c-.32.82,11.46,44.33,11.46,44.33s29.54,7.33,43.54,3.63,55.13-18.29,64.86-19.88,38.63-.78,52.75.9,29.9,1.5,38.79-2l.21-2.39-18.69-36.8a136.52,136.52,0,0,1-32.45-.6c-18.54-2.44-43.43-3.89-63.68,4.62s-30.74,10.44-38.95,11.35c-7.71.86-52.27-5.13-57.63-5.56Z" style="opacity:0.30000000000000004"></path><path d="M198.61,328.93c-.32.82,11.47,44.33,11.47,44.33s29.53,7.33,43.53,3.62,55.14-18.29,64.86-19.87,38.64-.79,52.75.9,29.9,1.49,38.79-2l-18.48-39.18a136.5,136.5,0,0,1-32.45-.6c-18.53-2.45-43.43-3.89-63.68,4.62s-30.74,10.43-38.95,11.35S198.61,328.93,198.61,328.93Z" style="fill:#FF81AE"></path><path d="M410,355.92c-8.89,3.48-25.07,3.52-39.19,1.83s-43-2.48-52.75-.9S267.21,373,253.21,376.73s-42.65-3.13-42.65-3.13l-.7,2-4.24-15.81.52-1.24a165.17,165.17,0,0,1,28.75-.22c14.54,1.31,27.45,4.39,35.17,2.35s19.85-5,26-8.58,20.47-9.06,35.17-8.16,22.26,2.39,34.36,3.24,35.68-4.64,37.84-5.23Z" style="fill:#fff;opacity:0.30000000000000004"></path><path d="M199.33,335.67l.57-.92a59.34,59.34,0,0,0,25.86,4.56c15.06-.63,48.29-5,50.25-3.89s2.74.94-1.41,3.64S219.32,352.84,204,350.5l-.63.82Z" style="fill:#fff;opacity:0.30000000000000004"></path><path d="M394.71,323.48s-15.57,7.22-56.18,3.48c0,0-26.13-1-40.19,6.94s-32.33,13.79-35,15.15-9,3-4.22,4.1,26.14-5.19,33.25-9.37,11.69-5.52,17.14-7.24,20.84-2,37.54-.07,38.82,3.43,44.44.63,7.86-3.77,7.86-3.77Z" style="fill:#fff;opacity:0.30000000000000004"></path><g style="opacity:0.8"><path d="M301.09,320.11s-.06.06-.21.14l-.65.36c-.58.32-1.43.77-2.55,1.33-2.24,1.1-5.51,2.63-9.69,4.22a114.6,114.6,0,0,1-15,4.56,122.66,122.66,0,0,1-19,2.77,221.38,221.38,0,0,1-34.82-.89c-4.44-.41-8-.81-10.5-1.08l-2.85-.34-.74-.1a.83.83,0,0,1-.25-.06h.25l.75.05,2.86.25,10.51.91c8.87.7,21.19,1.64,34.75.74a125.64,125.64,0,0,0,18.92-2.72,118.82,118.82,0,0,0,15-4.43c4.17-1.54,7.46-3,9.72-4.07,1.13-.52,2-.94,2.59-1.23l.68-.32A.76.76,0,0,1,301.09,320.11Z" style="fill:#fff"></path></g><g style="opacity:0.8"><path d="M318.91,317.37c0,.15-2.8.32-6.23.8s-6.18,1.05-6.22.9a24.38,24.38,0,0,1,6.15-1.42A23.7,23.7,0,0,1,318.91,317.37Z" style="fill:#fff"></path></g><g style="opacity:0.8"><path d="M379.31,320.64c0,.14-11-.59-24.57-1.63s-24.54-2-24.52-2.16,11,.59,24.56,1.64S379.32,320.5,379.31,320.64Z" style="fill:#fff"></path></g><g style="opacity:0.8"><path d="M212.61,369.24a6,6,0,0,1-.46-1.11c-.27-.72-.63-1.77-1.06-3.08-.87-2.61-2-6.24-3.18-10.28s-2.13-7.72-2.78-10.4c-.33-1.33-.58-2.42-.74-3.17a6,6,0,0,1-.2-1.19,4.82,4.82,0,0,1,.4,1.14l.89,3.13,2.93,10.34,3,10.32c.36,1.24.66,2.29.9,3.13A4.68,4.68,0,0,1,212.61,369.24Z" style="fill:#fff"></path></g><g style="opacity:0.30000000000000004"><path d="M204.05,330.67c7.32,9.13,6.55,24,16.2,30.59,4.65,3.2,10.63,3.58,16.28,3.48a130.42,130.42,0,0,0,55-13.23c11.5-5.63,22.3-13,34.64-16.42,24.22-6.7,49.86,2.87,75,1.83l-8.37-18.55Z"></path></g><path d="M202.65,306.17c-.27.9,15.62,46.41,15.62,46.41s32.07,5.56,46.72.54S322.41,329.4,332.66,327s41.15-3.79,56.34-3.07,32-.69,41.22-5.08l0-2.56-22.75-37.83a145.78,145.78,0,0,1-34.66,1.84c-20-1.19-46.62-.84-67.58,9.79s-32,13.48-40.68,15.08c-8.16,1.51-56.15-1.48-61.9-1.53Z" style="fill:#FF81AE"></path><path d="M202.65,306.17c-.27.9,15.62,46.41,15.62,46.41s32.07,5.56,46.72.54S322.41,329.4,332.66,327s41.15-3.79,56.34-3.07,32-.69,41.22-5.08l0-2.56-22.75-37.83a145.78,145.78,0,0,1-34.66,1.84c-20-1.19-46.62-.84-67.58,9.79s-32,13.48-40.68,15.08c-8.16,1.51-56.15-1.48-61.9-1.53Z" style="opacity:0.30000000000000004"></path><path d="M202.7,303.61c-.28.9,15.62,46.41,15.62,46.41s32.06,5.56,46.71.54,57.42-23.72,67.67-26.15,41.16-3.79,56.35-3.07,32-.69,41.22-5.08l-22.71-40.39a145.78,145.78,0,0,1-34.66,1.84c-20-1.19-46.62-.84-67.58,9.79s-32,13.48-40.68,15.08S202.7,303.61,202.7,303.61Z" style="fill:#FF81AE"></path><path d="M430.27,316.26c-9.21,4.39-26.47,5.66-41.66,4.94s-46.09.64-56.34,3.07-53,21.14-67.68,26.16-45.73-.08-45.73-.08l-.59,2.23L212.53,336l.46-1.36a177,177,0,0,1,30.65-2.44c15.62.3,29.63,2.59,37.7-.17s20.8-6.85,27.1-11.15,21.14-11.22,36.9-11.39,23.92.85,36.89.83,37.7-7.67,40-8.46Z" style="fill:#fff;opacity:0.30000000000000004"></path><path d="M204,310.74l.54-1a63.32,63.32,0,0,0,27.93,2.89c16-1.83,51.14-9,53.31-8s3,.8-1.22,4-57.92,18.92-74.46,17.59l-.6.92Z" style="fill:#fff;opacity:0.30000000000000004"></path><path d="M411.47,282.82s-16.05,8.89-59.66,8c0,0-27.95.91-42.34,10.46S276,318.48,273.28,320.13s-9.4,3.85-4.18,4.7,27.49-7.54,34.76-12.54,12-6.78,17.72-9,22.08-3.71,40-2.95,41.67.7,47.46-2.72,8.1-4.62,8.1-4.62Z" style="fill:#fff;opacity:0.30000000000000004"></path><g style="opacity:0.8"><path d="M311.35,286.38l-.22.16-.67.43c-.59.38-1.47.93-2.62,1.61-2.3,1.35-5.68,3.23-10,5.24a121.94,121.94,0,0,1-15.65,6,131.91,131.91,0,0,1-20,4.41c-14.45,2-27.69,1.87-37.21,1.71-4.77-.09-8.62-.24-11.28-.35l-3.07-.14-.8-.05-.27,0a.8.8,0,0,1,.27,0h.8l3.07,0,11.29.18c9.51.07,22.73.14,37.13-1.86a133.58,133.58,0,0,0,20-4.35,127.85,127.85,0,0,0,15.64-5.87c4.34-2,7.73-3.79,10.06-5.09,1.16-.64,2.06-1.16,2.67-1.52l.69-.39C311.26,286.41,311.34,286.37,311.35,286.38Z" style="fill:#fff"></path></g><g style="opacity:0.8"><path d="M330.14,282.09c0,.15-3,.54-6.58,1.31s-6.51,1.6-6.56,1.46a38,38,0,0,1,13.14-2.77Z" style="fill:#fff"></path></g><g style="opacity:0.8"><path d="M394.82,281c0,.14-11.79.19-26.33.11s-26.32-.26-26.32-.41,11.78-.19,26.33-.11S394.82,280.82,394.82,281Z" style="fill:#fff"></path></g><g style="opacity:0.8"><path d="M220.72,345.54a5.43,5.43,0,0,1-.58-1.15c-.33-.75-.8-1.84-1.36-3.21-1.13-2.72-2.62-6.5-4.17-10.72s-2.86-8.07-3.77-10.88c-.45-1.4-.8-2.54-1-3.33a6.66,6.66,0,0,1-.31-1.24,6.51,6.51,0,0,1,.5,1.18l1.19,3.27,3.91,10.82,4,10.77,1.21,3.27A6.62,6.62,0,0,1,220.72,345.54Z" style="fill:#fff"></path></g></g><g id="freepik--Egg--inject-40"><path d="M417.61,227.69c-2.21-4.16-6.74-6.59-11.29-7.81s-9.3-1.47-13.88-2.57c-8.77-2.12-16.52-7.3-25.18-9.87-19.89-5.91-40.72,2.1-59.69,10.5-12.62,1.77-21.74-2.89-33.94-6.55s-25.48-6.66-37.48-2.37c-9,3.22-16.79,10.42-26.36,10.87-6.57.31-14.17-2.4-19.1,2-4.19,3.7-3.57,10.71-.39,15.31,4.84,7,13.81,9.86,22.28,10.7S229.7,248,238,250c19.59,4.76,33.4,23.61,53,28.27,15,3.56,30.62-1.88,44.55-8.5s27.65-14.63,42.94-16.64c6.16-.81,12.42-.62,18.58-1.42s12.45-2.72,16.9-7S420.52,233.18,417.61,227.69Z" style="fill:#FF81AE"></path><g style="opacity:0.8"><path d="M417.61,227.69c-2.21-4.16-6.74-6.59-11.29-7.81s-9.3-1.47-13.88-2.57c-8.77-2.12-16.52-7.3-25.18-9.87-19.89-5.91-40.72,2.1-59.69,10.5-12.62,1.77-21.74-2.89-33.94-6.55s-25.48-6.66-37.48-2.37c-9,3.22-16.79,10.42-26.36,10.87-6.57.31-14.17-2.4-19.1,2-4.19,3.7-3.57,10.71-.39,15.31,4.84,7,13.81,9.86,22.28,10.7S229.7,248,238,250c19.59,4.76,33.4,23.61,53,28.27,15,3.56,30.62-1.88,44.55-8.5s27.65-14.63,42.94-16.64c6.16-.81,12.42-.62,18.58-1.42s12.45-2.72,16.9-7S420.52,233.18,417.61,227.69Z" style="fill:#fff"></path></g><path d="M340.47,240.37A44.56,44.56,0,0,0,299,217.15c-14.48,1-28.07,9.87-35.16,22.47a7.2,7.2,0,0,0,2.58,9.69c20.5,12.19,48.25,14.63,69.54,4.38,2.43-1.17,5-2.68,5.92-5.2S341.79,242.88,340.47,240.37Z" style="fill:#FF81AE"></path><g style="opacity:0.30000000000000004"><path d="M326.57,245.3a13.61,13.61,0,0,0-5.1.76A47.38,47.38,0,0,1,289.12,243c-2.44-1.18-5.1-3.11-5-5.82a9.3,9.3,0,0,1,1.4-3.7,5.21,5.21,0,0,0,.77-3.81c-.38-1.27-2.09-2.15-3.1-1.29-3.07,1.5-7.51,5.45-9.76,8s-3.4,6.41-1.85,9.45c1.05,2.08,3.14,3.43,5.22,4.47,9.84,4.94,21.26,5.27,32.27,5.5,6.37.13,13.19.14,18.49-3.41,1.33-.9,2.63-2.24,2.55-3.84S328.28,245.53,326.57,245.3Z" style="fill:#fff"></path></g><g style="opacity:0.8"><path d="M313.3,271.63c-2.29,6.39-27.19,2.15-38.36-5.13-8.91-5.8-15.73-14.73-25.42-19.09-8.64-3.9-18.47-3.68-27.91-4.6S199.69,241,194,233.39c0,0-2.42-1.94,2.13-2.33s2,3.92,15.32,6.14,23.76-5.92,48.88,14.19,34.77,19.63,40,19.34S314.4,268.56,313.3,271.63Z" style="fill:#fff"></path></g><g style="opacity:0.8"><path d="M197.45,223a11.58,11.58,0,0,0-3.85,1.57,11.42,11.42,0,0,0-2.69,3.16c-.06,0,0-.51.36-1.23a6.56,6.56,0,0,1,2-2.35,6.68,6.68,0,0,1,2.87-1.19A2.27,2.27,0,0,1,197.45,223Z" style="fill:#fff"></path></g><g style="opacity:0.8"><path d="M245.32,211.56a35.21,35.21,0,0,0-5.37-.19,21.43,21.43,0,0,0-5.67,1.21,24.81,24.81,0,0,0-6.22,3.42c-2.07,1.47-4,3-5.93,4.1a16.84,16.84,0,0,1-5.53,2.11,9.78,9.78,0,0,1-4-.08,5.83,5.83,0,0,1-1-.34c-.23-.09-.35-.15-.34-.17s.5.15,1.41.32a10.53,10.53,0,0,0,3.88-.1,17.3,17.3,0,0,0,5.35-2.15c1.88-1.12,3.79-2.63,5.87-4.12a24.54,24.54,0,0,1,6.36-3.45,20.49,20.49,0,0,1,5.8-1.11,19.17,19.17,0,0,1,4,.22,8.55,8.55,0,0,1,1.06.22A1.62,1.62,0,0,1,245.32,211.56Z" style="fill:#fff"></path></g><g style="opacity:0.8"><path d="M374.78,229.93s-.78.12-2.16.38a25,25,0,0,0-5.67,1.82,41.54,41.54,0,0,0-7.58,4.56c-2.69,2-5.44,4.41-8.34,7-5.82,5.12-11.7,9.09-16.36,11.17a31.92,31.92,0,0,1-5.66,2c-.69.19-1.24.26-1.61.33a1.82,1.82,0,0,1-.56.07s.76-.21,2.11-.6a36.76,36.76,0,0,0,5.57-2.17,74.41,74.41,0,0,0,16.16-11.24c2.9-2.55,5.68-5,8.41-7a39.86,39.86,0,0,1,7.71-4.52,23.5,23.5,0,0,1,5.78-1.68,15.82,15.82,0,0,1,1.63-.17A2.45,2.45,0,0,1,374.78,229.93Z" style="fill:#fff"></path></g><g style="opacity:0.8"><path d="M409,242.51a20.21,20.21,0,0,0,2.3-1.68,9.09,9.09,0,0,0,1.16-12.32,18.88,18.88,0,0,0-2-2.08s.27.09.69.38a8,8,0,0,1,1.55,1.47,9.08,9.08,0,0,1-1.2,12.83,7.84,7.84,0,0,1-1.8,1.15A2,2,0,0,1,409,242.51Z" style="fill:#fff"></path></g><g style="opacity:0.8"><path d="M262.49,216.37A35,35,0,0,0,239,212.62c-5.1,1-10.31,3.47-12.68,8.09-.75,1.4,1.85,2.11,3.1,1.78s2.46-1.69,3.55-2.37a24.94,24.94,0,0,1,18.77-3.07c3.28.78,6.46,2.24,9.83,2.19,1,0,2.22-.44,2.19-1.42C263.72,217.15,263.07,216.7,262.49,216.37Z" style="fill:#fff"></path></g><g style="opacity:0.8"><path d="M298.53,219.84a8.26,8.26,0,0,1-1.58.31c-.51.07-1.14.17-1.85.34s-1.54.29-2.43.56-1.87.51-2.89.88-2.1.78-3.23,1.24A42.81,42.81,0,0,0,273.48,232c-.85.87-1.68,1.69-2.36,2.53a29.74,29.74,0,0,0-1.9,2.35c-.58.71-1,1.43-1.44,2s-.75,1.14-1,1.59a10.53,10.53,0,0,1-.87,1.36,9.55,9.55,0,0,1,.7-1.46,14.51,14.51,0,0,1,.94-1.64c.4-.63.82-1.36,1.38-2.1a27.35,27.35,0,0,1,1.87-2.41c.68-.86,1.5-1.7,2.35-2.59a41.18,41.18,0,0,1,13.22-8.92c1.15-.45,2.23-.9,3.29-1.21a27.51,27.51,0,0,1,2.93-.82c.9-.25,1.74-.36,2.46-.5a16.67,16.67,0,0,1,1.88-.25A11.29,11.29,0,0,1,298.53,219.84Z" style="fill:#fff"></path></g><g style="opacity:0.8"><path d="M308.28,220.34a9.54,9.54,0,0,1-2.5-.16,10.33,10.33,0,0,1-2.49-.28,4.53,4.53,0,0,1,2.53-.24A4.62,4.62,0,0,1,308.28,220.34Z" style="fill:#fff"></path></g></g><g id="freepik--bread-1--inject-40"><path d="M218.94,169.23l.32-18.5a2.55,2.55,0,0,1,2-2.45c4.17-.89,14-3.22,20.82-6.46,8.79-4.21,19.33-10.36,26.87-13.42,8.29-3.37,30.53-14,34.88-15.49a2.48,2.48,0,0,1,1.35-.08L389.7,131a2.12,2.12,0,0,0,.43.06c1.36.05,9.14.51,9.6,4.23.42,3.33-.09,15.7-.3,20.17a2.55,2.55,0,0,1-1.57,2.24c-7.8,3.21-43.81,18.34-52.77,27.5-10.06,10.29-21.84,19.09-26.49,19.3s-21.37-5.9-26.28-7.44c-4.45-1.4-61-21.57-71.69-25.36A2.55,2.55,0,0,1,218.94,169.23Z" style="fill:#ffbe9d"></path><path d="M399.73,135.27S372,147.9,359.62,153.22s-21.22,14.27-26.46,19.72-7.87,9.11-16.58,9.35-35-10.3-48.64-15.8c-13.12-5.3-40.89-14.88-47.3-17.08a1,1,0,0,0-1.37,1l-.06,3.52-.3,17.17s68.49,24.44,73.41,26,21.62,7.65,26.28,7.44,16.43-9,26.49-19.3,54.26-28.11,54.26-28.11S400.24,139.35,399.73,135.27Z" style="fill:#eb996e"></path><path d="M268.11,135.33c-1.4.2-2.4,1.15-2.14,2s1.74,1.58,3.18,1.49,2.62-.95,2.54-1.85-1.42-1.7-2.87-1.72" style="fill:#eb996e"></path><path d="M353.33,145.69c-1.41.2-2.4,1.15-2.14,2s1.74,1.58,3.17,1.49,2.62-1,2.54-1.85-1.41-1.7-2.86-1.72" style="fill:#eb996e"></path><path d="M353.81,141.75c-.82.12-1.39.66-1.24,1.18s1,.91,1.84.86,1.51-.55,1.46-1.07-.81-1-1.65-1" style="fill:#eb996e"></path><path d="M336,157c-.82.12-1.39.67-1.24,1.18s1,.91,1.83.86,1.52-.55,1.47-1.07-.82-1-1.66-1" style="fill:#eb996e"></path><path d="M260.6,137.78c-.82.12-1.39.67-1.24,1.18s1,.91,1.84.86,1.51-.55,1.46-1.07-.81-1-1.65-1" style="fill:#eb996e"></path><path d="M220.64,149.41l.49.14,1.43.47,5.48,1.84c4.76,1.62,11.63,4,20.09,7,4.23,1.51,8.86,3.18,13.81,5s10.15,4,15.68,6.18,11.35,4.4,17.45,6.51q4.57,1.6,9.37,3a65.67,65.67,0,0,0,9.84,2.24,7.64,7.64,0,0,0,1.26.1c.42,0,.83.06,1.25,0l1.27-.07,1.25-.14a16.7,16.7,0,0,0,4.75-1.34c3-1.4,5.25-3.87,7.47-6.19a115.13,115.13,0,0,1,13.66-12.71A67.75,67.75,0,0,1,359.7,153l13.42-6,19.45-8.61,5.3-2.32,1.39-.59.47-.19-.45.24-1.36.63-5.26,2.41-19.39,8.77-13.4,6a67.58,67.58,0,0,0-14.39,8.6,115.76,115.76,0,0,0-13.58,12.68c-2.21,2.32-4.5,4.85-7.62,6.31a17,17,0,0,1-4.9,1.38l-1.28.15-1.29.07c-.43,0-.86,0-1.3,0a7.92,7.92,0,0,1-1.29-.1,65.74,65.74,0,0,1-9.93-2.26q-4.8-1.44-9.38-3c-6.11-2.12-11.93-4.37-17.46-6.54s-10.73-4.36-15.67-6.23-9.55-3.57-13.77-5.1l-20-7.17-5.45-1.93-1.42-.52Z" style="fill:#263238"></path><g style="opacity:0.30000000000000004"><path d="M330.72,122.63c-9.57-2-19.37-4.11-29.06-2.77-9.52,1.31-18.27,5.8-26.74,10.35q-13.91,7.47-27.56,15.42a3.17,3.17,0,0,0-.94,4.63h0c5.42,4.75,12.24,3.81,18.89,1,7.07-2.94,12.53-8.65,18.51-13.42s13.4-8.85,20.95-7.57c3.89.67,7.4,2.7,11.16,3.88,4.1,1.29,8.44,1.54,12.73,1.78l22.75,1.29a3.74,3.74,0,0,0,2.11-7C346.81,126.26,338.52,124.29,330.72,122.63Z" style="fill:#fff"></path></g></g><g id="freepik--Line--inject-40"><path d="M308.3,148.68a8.65,8.65,0,0,1,.21,3,9.1,9.1,0,0,1-.31,3,9,9,0,0,1-.21-3A9.1,9.1,0,0,1,308.3,148.68Z" style="fill:#263238"></path><path d="M308.75,123.43a39.14,39.14,0,0,1,.15,6.32,38.76,38.76,0,0,1-.37,6.3,36.48,36.48,0,0,1-.15-6.31A37.64,37.64,0,0,1,308.75,123.43Z" style="fill:#263238"></path><path d="M309.07,104.81a8.9,8.9,0,0,1,.21,3,9.1,9.1,0,0,1-.31,3,8.65,8.65,0,0,1-.21-3A9,9,0,0,1,309.07,104.81Z" style="fill:#263238"></path><path d="M303.56,286.55a8.69,8.69,0,0,1-.21-3,9.07,9.07,0,0,1,.31-3,8.61,8.61,0,0,1,.21,3A9.1,9.1,0,0,1,303.56,286.55Z" style="fill:#263238"></path><path d="M303.27,303.1a16.81,16.81,0,0,1-.19-4.14,17,17,0,0,1,.33-4.14,16.36,16.36,0,0,1,.19,4.15A17,17,0,0,1,303.27,303.1Z" style="fill:#263238"></path><path d="M303,317.37a8.86,8.86,0,0,1-.21-3,9.1,9.1,0,0,1,.31-3,8.69,8.69,0,0,1,.21,3A9,9,0,0,1,303,317.37Z" style="fill:#263238"></path><path d="M304.7,369.77a17.78,17.78,0,0,1,.11-6,9,9,0,0,1,.21,3A8.56,8.56,0,0,1,304.7,369.77Z" style="fill:#263238"></path><path d="M304.36,389.79a23.35,23.35,0,0,1-.18-5,24.71,24.71,0,0,1,.35-5,24.61,24.61,0,0,1,.17,5A25.18,25.18,0,0,1,304.36,389.79Z" style="fill:#263238"></path><path d="M304.08,405.8a8.69,8.69,0,0,1-.21-3,9.07,9.07,0,0,1,.31-3,8.9,8.9,0,0,1,.21,3A9.1,9.1,0,0,1,304.08,405.8Z" style="fill:#263238"></path><path d="M308.24,202.76a38.41,38.41,0,0,0,.15,6.18,41.14,41.14,0,0,0,.37-6.18Z" style="fill:#263238"></path></g><g id="freepik--Flag--inject-40"><path d="M349.26,51a18.31,18.31,0,0,1-17.34.22c-2.46-1.32-4.62-3.21-7.25-4.15a12.62,12.62,0,0,0-12.77,3.32l-.34,19.76c2.36-3.7,6.48-6.49,10.84-6,3.4.37,6.47,2.19,9.82,2.83a14.44,14.44,0,0,0,17-16Z" style="fill:#FF81AE"></path><path d="M312.07,40.67c.15,0,0,12.74-.35,28.46s-.74,28.45-.88,28.45,0-12.74.36-28.46S311.93,40.66,312.07,40.67Z" style="fill:#263238"></path><path d="M321.39,52.87c.15,0,.26,2.44.6,5.43s.78,5.39.63,5.42a19.12,19.12,0,0,1-1.15-5.37A19.57,19.57,0,0,1,321.39,52.87Z" style="fill:#263238"></path><polygon points="329.77 54.84 330.61 56.62 332.55 56.93 331.12 58.28 331.42 60.22 329.69 59.28 327.94 60.16 328.31 58.23 326.92 56.83 328.87 56.59 329.77 54.84" style="fill:#fff"></polygon></g><g id="freepik--speech-bubble--inject-40"><path d="M163.32,133.7,175.58,128a31.53,31.53,0,1,0-7.74-8.2h0Z" style="fill:#fff"></path><path d="M163.32,133.7c.28-.88,1.62-5.16,4.38-13.94a.13.13,0,0,1,.16-.09l0,0h0l-.19.17a31.45,31.45,0,0,1-5.13-15.58,28,28,0,0,1,.15-5c.12-.85.21-1.72.36-2.59s.4-1.74.61-2.62a31.84,31.84,0,0,1,14.2-18.6,31.44,31.44,0,0,1,12.57-4.32,32.08,32.08,0,0,1,13.94,1.52,31,31,0,0,1,12.37,7.79,31.61,31.61,0,0,1,7.65,12.81,32.06,32.06,0,0,1,1,14.25,31.14,31.14,0,0,1-4.88,12.61A31.86,31.86,0,0,1,201,133.56a33.76,33.76,0,0,1-10.32.52,31.28,31.28,0,0,1-15.18-6h.13l-12.32,5.58,12.21-5.8a.15.15,0,0,1,.13,0,31.25,31.25,0,0,0,15.07,5.82,34,34,0,0,0,10.2-.57,31.61,31.61,0,0,0,19.25-13.26A30.49,30.49,0,0,0,225,107.48a31.65,31.65,0,0,0-1-14,31.24,31.24,0,0,0-7.53-12.6,30.69,30.69,0,0,0-12.17-7.67,31.63,31.63,0,0,0-13.71-1.5,31,31,0,0,0-12.38,4.23,31.36,31.36,0,0,0-14,18.3c-.21.87-.42,1.73-.62,2.58s-.24,1.72-.36,2.56a28.4,28.4,0,0,0-.18,4.93,31.48,31.48,0,0,0,5,15.46.13.13,0,0,1,0,.18.14.14,0,0,1-.16,0h0l.21,0C165,128.57,163.61,132.83,163.32,133.7Z" style="fill:#263238"></path><path d="M194.05,111.44l-13.14-6.61,13.18-6.63,13.2,6.21Zm-10.91-6.61L194,110.31l11-5.85-10.94-5.15Z" style="fill:#FF81AE"></path><polygon points="194.04 115.77 180.91 109.16 185.85 106.67 186.3 107.57 183.14 109.16 194.03 114.64 205.09 108.77 201.79 107.08 202.25 106.19 207.25 108.75 194.04 115.77" style="fill:#FF81AE"></polygon><polygon points="193.69 94.73 181.62 100.81 193.63 106.85 205.76 100.41 193.69 94.73" style="fill:#FF81AE"></polygon></g><g id="freepik--Character--inject-40"><path d="M90.11,342.32s1.44,32.06,2.64,42.82S104.2,442,104.2,442l15.88,1.16-4.61-96.8Z" style="fill:#ffbe9d"></path><path d="M141.85,346.39s-4,25.31-7.1,38-16.89,50.52-16.89,50.52l-9.81-35.64,7.42-52.87Z" style="fill:#ffbe9d"></path><path d="M116.63,352.3a.75.75,0,0,1,0,.24c0,.18,0,.41,0,.68,0,.65,0,1.52.09,2.63.08,2.33.19,5.62.32,9.66.29,8.16.79,19.43,1.35,31.88s1,23.72,1.19,31.89c.11,4.08.15,7.39.16,9.67,0,1.11,0,2,0,2.63,0,.28,0,.5,0,.69a1,1,0,0,1,0,.23.72.72,0,0,1,0-.23l0-.69c0-.64-.05-1.52-.09-2.62-.07-2.33-.18-5.62-.32-9.67-.28-8.16-.79-19.43-1.34-31.88s-1-23.72-1.2-31.89c-.1-4.08-.14-7.38-.15-9.67,0-1.11,0-2,0-2.63v-.68A.75.75,0,0,1,116.63,352.3Z" style="fill:#eb996e"></path><path d="M103.45,438.88s12.53,5.44,16.39-2.37l2.07,3L133,461.28a3.16,3.16,0,0,1-1,4.08,3.06,3.06,0,0,1-3.3.07c-5.38-3.33-25.12-15.64-25.41-17.82l-1.13-5.69a2.93,2.93,0,0,1,1.28-3Z" style="fill:#FF81AE"></path><g style="opacity:0.6000000000000001"><path d="M131.51,465.63l-28.63-20,.26,1.24c.17,1.37.87,1.78,1.69,2.5,2.43,2.16,8.87,6.76,23.79,16.07a3.06,3.06,0,0,0,2.89.18Z" style="fill:#fff"></path></g><g style="opacity:0.6000000000000001"><path d="M105.52,441.22a1.86,1.86,0,0,1,1,2.27,1.78,1.78,0,0,1-2.23,1,2,2,0,0,1-1.06-2.4,1.85,1.85,0,0,1,2.44-.8" style="fill:#fff"></path></g><path d="M122.08,454.29c.18,0,.51-1.63,2.08-2.82s3.23-1.18,3.22-1.37-.4-.23-1.11-.18a4.83,4.83,0,0,0-2.52,1,4.72,4.72,0,0,0-1.58,2.22C122,453.84,122,454.28,122.08,454.29Z" style="fill:#263238"></path><path d="M125,457.76c.17.1.91-1.06,2.32-1.81s2.77-.79,2.78-1-1.49-.48-3.09.41S124.84,457.71,125,457.76Z" style="fill:#263238"></path><path d="M117.12,450.1c.17.11,1.29-1.66,3.4-3s4.15-1.74,4.12-1.94-2.25-.11-4.49,1.4S117,450.05,117.12,450.1Z" style="fill:#263238"></path><path d="M115.12,443.17c.12.16,1.59-.86,3.68-1.39s3.86-.38,3.88-.57-1.81-.65-4.05-.06S115,443.06,115.12,443.17Z" style="fill:#263238"></path><path d="M120,441.47a2.57,2.57,0,0,0-.39-1.06,8,8,0,0,0-2-2.4,3.46,3.46,0,0,0-2-1,1.23,1.23,0,0,0-1.18.78,2.06,2.06,0,0,0,.08,1.43,4.34,4.34,0,0,0,5,2.25,5,5,0,0,0,3.55-4.32,1.74,1.74,0,0,0-.48-1.37,1.19,1.19,0,0,0-1.41-.1,4.3,4.3,0,0,0-1.43,1.7,8.81,8.81,0,0,0-1,2.92,3.05,3.05,0,0,0,0,1.14,14.18,14.18,0,0,1,1.43-3.83,4.07,4.07,0,0,1,1.28-1.45.64.64,0,0,1,.77.05,1.2,1.2,0,0,1,.27.92,4.48,4.48,0,0,1-3.13,3.71,3.77,3.77,0,0,1-4.31-1.85,1.48,1.48,0,0,1-.09-1,.65.65,0,0,1,.64-.44,3.17,3.17,0,0,1,1.72.79A11.59,11.59,0,0,1,120,441.47Z" style="fill:#263238"></path><path d="M108,102.75a12.59,12.59,0,0,1,23.4-2.33c2.14,4.26,2,9.86,5.62,13,2.49,2.11,6.17,2.42,8.6,4.61,5.14,4.62,1.9,14.61,7.36,18.85a28.59,28.59,0,0,1-12.07,5.51,7.79,7.79,0,0,0-2.08-4c.89,2.56-.58,5.47-2.78,7.05s-4.95,2.13-7.63,2.55c-6.44,1-13.1,1.53-19.44,0s-12.38-5.38-15.27-11.23c-.73-1.49-1.28-3.12-2.49-4.26s-3.15-1.66-4.77-2.42a12.53,12.53,0,0,1-7-12c4.23-.18,7.21-4.19,9-8s3.24-8.17,6.76-10.52a9.27,9.27,0,0,1,13.87,4.61" style="fill:#263238"></path><path d="M133.25,116.32c-.48-6.59-7.66-13.11-14.23-12.35l-21.3,4.28.11,3.56,1.88,52.26,16.48,16,7.12-16V150.62s8.42-1.49,10-12.51C134.16,132.62,133.79,123.65,133.25,116.32Z" style="fill:#ffbe9d"></path><path d="M129.17,125a1.42,1.42,0,0,1-1.35,1.44,1.35,1.35,0,0,1-1.46-1.26,1.4,1.4,0,0,1,1.34-1.44A1.35,1.35,0,0,1,129.17,125Z" style="fill:#263238"></path><path d="M131,121c-.18.19-1.25-.59-2.77-.57s-2.63.79-2.79.61.09-.42.57-.78a3.91,3.91,0,0,1,2.23-.71,3.63,3.63,0,0,1,2.21.69C130.9,120.61,131.06,120.94,131,121Z" style="fill:#263238"></path><path d="M115.18,125a1.42,1.42,0,0,1-1.35,1.44,1.36,1.36,0,0,1-1.47-1.26,1.41,1.41,0,0,1,1.35-1.44A1.35,1.35,0,0,1,115.18,125Z" style="fill:#263238"></path><path d="M116.05,121.46c-.17.19-1.25-.59-2.77-.57s-2.62.79-2.79.61.09-.42.58-.78a3.78,3.78,0,0,1,2.23-.71,3.68,3.68,0,0,1,2.2.68C116,121.05,116.14,121.38,116.05,121.46Z" style="fill:#263238"></path><path d="M121.68,132.67a9.68,9.68,0,0,1,2.46-.47c.39,0,.76-.13.82-.39a2,2,0,0,0-.27-1.15c-.38-.93-.77-1.91-1.18-2.94-1.64-4.19-2.83-7.63-2.66-7.7s1.64,3.28,3.27,7.47c.4,1,.77,2,1.13,3a2.26,2.26,0,0,1,.22,1.52,1,1,0,0,1-.63.57,2.46,2.46,0,0,1-.66.1A10.22,10.22,0,0,1,121.68,132.67Z" style="fill:#263238"></path><path d="M123.29,150.65a29.18,29.18,0,0,1-15.15-3.8s3.8,7.67,15.17,6.54Z" style="fill:#eb996e"></path><path d="M121.08,136.34a2.76,2.76,0,0,0-2.47-1,2.49,2.49,0,0,0-1.71.95,1.57,1.57,0,0,0-.1,1.81,1.82,1.82,0,0,0,2,.48,5.78,5.78,0,0,0,1.93-1.18,1.67,1.67,0,0,0,.43-.45.51.51,0,0,0,0-.57" style="fill:#eb996e"></path><path d="M117.22,133.77c.25,0,.27,1.63,1.69,2.78s3.18,1,3.19,1.19-.38.32-1.13.35a4.11,4.11,0,0,1-2.66-.9,3.53,3.53,0,0,1-1.31-2.33C116.93,134.17,117.11,133.76,117.22,133.77Z" style="fill:#263238"></path><path d="M116.35,117.17c-.15.41-1.67.23-3.45.47s-3.21.73-3.45.36c-.11-.17.14-.56.71-1a5.85,5.85,0,0,1,2.56-.92,5.7,5.7,0,0,1,2.7.29C116.08,116.65,116.41,117,116.35,117.17Z" style="fill:#263238"></path><path d="M130.88,115.82c-.27.34-1.32,0-2.58,0s-2.32.26-2.57-.1c-.1-.17.06-.52.52-.85a3.72,3.72,0,0,1,4.14.08C130.84,115.29,131,115.65,130.88,115.82Z" style="fill:#263238"></path><path d="M118.68,104.43a11.71,11.71,0,0,1-8.14,10.16c-1.77.52-4,.89-4.6,2.63s1,3.51,1.8,5.26a6,6,0,0,1-1.26,6.5c-1,.93-2.21,1.52-3.11,2.51a5.91,5.91,0,0,0-1.33,4.94,8.45,8.45,0,0,0,2.53,4.56c-4.16.15-8.68-2.06-10-6-.76-2.36-.29-4.92.09-7.37a92.93,92.93,0,0,0,1-16.91,4.46,4.46,0,0,1,.51-2.78,4.27,4.27,0,0,1,2.43-1.35,138,138,0,0,1,18-3.93" style="fill:#263238"></path><path d="M116.25,102.78a23.27,23.27,0,0,0,4,6,7.86,7.86,0,0,0,6.5,2.45l-1.23-2.17a34.85,34.85,0,0,0,11.69,8.21c-2.11-4.18-4.29-8.45-7.74-11.61s-8.49-5-12.9-3.46" style="fill:#263238"></path><path d="M191.17,183.26s3.84-4.49,5.45-4.68,3.14.95,4.95,1.33,10.37.57,10.66,1a4.66,4.66,0,0,1,.48,1.19s9.42.6,10.37,1.16a4.44,4.44,0,0,1,1.42,1.32s3.33.19,4,1c0,0,2.19.19,2.28,1.33,0,0-17.92,2.48-19.8,2.38a84.85,84.85,0,0,1-8.63-1.8l-2,.85-.59,2Z" style="fill:#ffbe9d"></path><path d="M214.3,182.39a29.86,29.86,0,0,1-6.45-.62,30.43,30.43,0,0,1-6.31-1.51,61,61,0,0,1,6.39,1A61.47,61.47,0,0,1,214.3,182.39Z" style="fill:#eb996e"></path><path d="M224.47,184.58a35.11,35.11,0,0,1-6.82.87,35.73,35.73,0,0,1-6.87.08,60.63,60.63,0,0,1,6.84-.59A64.33,64.33,0,0,1,224.47,184.58Z" style="fill:#eb996e"></path><path d="M228.38,185.62s.1,0,.19.1a.5.5,0,0,1-.08.61,1.29,1.29,0,0,1-.9.27l-1.17.07c-1.73.09-4.12.17-6.76.23s-5,.09-6.76.08a15.58,15.58,0,0,1-2.81-.12,15.54,15.54,0,0,1,2.8-.25c1.73-.09,4.12-.17,6.76-.23s5-.09,6.76-.08h1.17a1.17,1.17,0,0,0,.78-.13.41.41,0,0,0,.12-.41C228.44,185.67,228.37,185.64,228.38,185.62Z" style="fill:#eb996e"></path><path d="M82.62,270.94s-4.27,16.93-2.81,26.5S87,360.11,87,360.11l5.53.26,51.31,2.37s8.07-47.6,11.26-61.48-2.56-30.32-2.56-30.32l-29.18-13.68Z" style="fill:#455a64"></path><path d="M97.35,151.63l-4.14,7.21-19,8.29,7.35,35,10.84,31.62L76.68,287.21l81,7.19s-8.19-51.36-11.18-61.7l-2.72-26.92-1.2-43.51-17.45-5.2L123,153.88l-7.94,23.53Z" style="fill:#455a64"></path><path d="M50.92,232.07s-5.17-7.61-4.08-13,22.84-47.59,22.84-47.59l4.49-4.3,1.92,3.71,5.43,31.33-14.88,20,20,17.22c0,1.09-7.23,14.89-7.23,14.89S51.19,235.61,50.92,232.07Z" style="fill:#455a64"></path><path d="M53.14,224.9a6.25,6.25,0,0,1,1.76-1.12,19.76,19.76,0,0,1,9.79-2.08,6.24,6.24,0,0,1,2.06.31,42.87,42.87,0,0,0-7,.61A41.68,41.68,0,0,0,53.14,224.9Z" style="fill:#263238"></path><path d="M66.75,222c-.1.16-3.15-2.31-7.59-4a32.77,32.77,0,0,0-8.37-1.72,7.93,7.93,0,0,1,2.54-.09,21.06,21.06,0,0,1,6,1.32,25.23,25.23,0,0,1,5.44,2.86A9.3,9.3,0,0,1,66.75,222Z" style="fill:#263238"></path><path d="M142.56,162.27a130.14,130.14,0,0,1,8,12.07c3.78,6.5,14.68,30,14.68,30L189,181.68l13,9.64s-29.57,35.75-35,37.49-8-1.52-8-1.52l-15.07-20.1-2.4-27.64Z" style="fill:#455a64"></path><path d="M147.12,234.89a1.62,1.62,0,0,1-.11-.22l-.28-.68c-.24-.6-.57-1.5-1-2.63-1-2.26-2.44-5.5-4.47-9.39-4-7.83-10.12-18.33-17.22-29.71s-13.81-21.51-18.72-28.81c-2.45-3.61-4.43-6.55-5.84-8.62l-1.57-2.36-.4-.62c-.09-.14-.13-.21-.12-.22a2.15,2.15,0,0,1,.16.19l.44.59,1.66,2.3c1.44,2,3.47,4.92,6,8.53,5,7.25,11.74,17.36,18.86,28.74s13.18,21.94,17.11,29.82c2,3.92,3.4,7.2,4.33,9.48.44,1.15.74,2.06,1,2.67l.23.7A.78.78,0,0,1,147.12,234.89Z" style="fill:#263238"></path><path d="M73.18,182.61c.13-.05,3.25,7.3,7,16.42s6.61,16.56,6.47,16.62-3.24-7.3-7-16.42S73.05,182.66,73.18,182.61Z" style="fill:#263238"></path><path d="M140.7,171.07c.15,0,1.06,8.5,2,19s1.66,19,1.52,19.06-1.06-8.5-2-19S140.56,171.08,140.7,171.07Z" style="fill:#263238"></path><path d="M157.66,294.4a4,4,0,0,1-.82.05c-.54,0-1.34,0-2.36,0-2,0-5-.12-8.67-.4L133,293l-7.56-.65-8.14-.52c-11.15-.69-21.24-1.59-28.48-2.71-3.63-.53-6.54-1.1-8.55-1.5L78,287.1a4.69,4.69,0,0,1-.79-.22A5.43,5.43,0,0,1,78,287l2.32.42c2,.34,4.93.85,8.56,1.34,7.24,1,17.32,1.86,28.47,2.55l8.13.53,7.57.69,12.8,1.18c3.64.32,6.6.48,8.64.56l2.36.08A5.2,5.2,0,0,1,157.66,294.4Z" style="fill:#263238"></path><path d="M131,185.62a13.6,13.6,0,0,1-2.21,1.55c-1.4.89-3.37,2.08-5.57,3.33s-4.24,2.33-5.73,3.07a11.93,11.93,0,0,1-2.46,1.1,15.89,15.89,0,0,1,2.29-1.42l5.64-3.2,5.64-3.2A14.62,14.62,0,0,1,131,185.62Z" style="fill:#263238"></path><path d="M134.38,193.4a10.39,10.39,0,0,1-2.13,1.3c-1.35.73-3.25,1.69-5.38,2.66s-4.11,1.77-5.55,2.3a10.58,10.58,0,0,1-2.38.75,12.48,12.48,0,0,1,2.24-1.09l5.47-2.44,5.44-2.51A13.2,13.2,0,0,1,134.38,193.4Z" style="fill:#263238"></path><path d="M121.62,342.19a10,10,0,0,1-.1-1.58c0-1-.08-2.49-.16-4.31-.17-3.64-.55-8.66-1.32-14.16s-1.82-10.42-2.67-14c-.43-1.77-.78-3.2-1-4.19a9.67,9.67,0,0,1-.35-1.55,8.08,8.08,0,0,1,.54,1.49c.32,1,.73,2.39,1.2,4.16a119.24,119.24,0,0,1,2.83,14,123.67,123.67,0,0,1,1.18,14.21c0,1.83,0,3.31,0,4.33A8.64,8.64,0,0,1,121.62,342.19Z" style="fill:#263238"></path><g style="opacity:0.30000000000000004"><path d="M86.88,254.23a5.33,5.33,0,0,0,4.64-1.83c1.22-1.23,2.12-2.75,3.36-4a25,25,0,0,1,5.84-3.71,12.93,12.93,0,0,0,5.28-4.38c1.19-2,1.25-4.82-.44-6.4-2-1.9-5.36-1.15-7.79.21A21.53,21.53,0,0,0,87,253.54"></path></g><path d="M86.37,240.2l9.32-11,7.89-1.15a1.94,1.94,0,0,1-1,2.49c-1.28.71-5.32,1.07-5.32,1.07l-2.45,2.94,3.77-1.92,7.34-.71s.62,2-1,2.63c0,0-.71,2.27-1.83,3a8.75,8.75,0,0,1-3.06.92s1,1.12.31,2-4.13,1.42-4.13,1.42l-5.33,2.7s-2.69,8.23-4.12,8.43-5.65-2.09-5.65-2.09Z" style="fill:#ffbe9d"></path><path d="M98.58,232.61c.15.21-1.59,1.27-3.75,2.43a31.65,31.65,0,0,1-4,2c-.1-.14,1.56-1.3,3.74-2.46,1.08-.58,2.08-1.08,2.8-1.43S98.55,232.6,98.58,232.61Z" style="fill:#eb996e"></path><path d="M105.22,234.59a10.28,10.28,0,0,1-2.14.26,13.26,13.26,0,0,0-4.89,1.31c-1.78.89-3.3,2-4.5,2.55a5.58,5.58,0,0,1-2,.78,18.28,18.28,0,0,1,1.84-1.1c1.13-.67,2.61-1.77,4.45-2.7a11.56,11.56,0,0,1,5.1-1.2A8.11,8.11,0,0,1,105.22,234.59Z" style="fill:#eb996e"></path><g style="opacity:0.30000000000000004"><path d="M155.37,294.36a109.82,109.82,0,0,1-70.87-5.85Z"></path></g></g></svg>